<svg
  version="1.1"
  xmlns="http://www.w3.org/2000/svg"
  xmlns:xlink="http://www.w3.org/1999/xlink"
  x="0px"
  y="0px"
  viewBox="0 0 560 560"
  style="enable-background: new 0 0 560 560"
  xml:space="preserve"
>
  <style type="text/css">
    .st0 {
      fill: #f8e38a;
    }
    .st1 {
      fill: #ffffff;
    }
    .st2 {
      fill: none;
      stroke: #000000;
      stroke-miterlimit: 10;
    }
  </style>
  <g id="Layer_2">
    <g>
      <g>
        <path
          class="st0"
          d="M187.93,299.89c4.74-5.97,10.14-11.81,13.55-18.7c3.31-6.68,6.29-13.79,8.6-20.94
				c1.82-5.63,3.11-11.41,5.3-16.92c-2.05,4.86-4.1,9.71-6.15,14.57c2.09-4.76,4.78-9.08,7.9-13.22c-3.18,4.12-6.36,8.23-9.54,12.35
				c7.58-9.68,16.31-19.11,25.91-26.81c-4.12,3.18-8.23,6.36-12.35,9.54c3.99-3.05,8.15-5.65,12.75-7.67
				c-4.86,2.05-9.71,4.1-14.57,6.15c4.92-1.95,9.97-3.11,15.21-3.84c-5.41,0.73-10.81,1.45-16.22,2.18
				c12.64-1.5,25.57-1.37,38.28-1.15c12.79,0.22,25.67,0.71,38.36,2.36c-5.41-0.73-10.81-1.45-16.22-2.18
				c7.06,1.02,13.9,2.59,20.54,5.21c-4.86-2.05-9.71-4.1-14.57-6.15c7.73,3.3,14.7,7.77,21.36,12.87
				c-4.12-3.18-8.23-6.36-12.35-9.54c7.95,6.24,15.19,13.23,21.4,21.22c-3.18-4.12-6.36-8.23-9.54-12.35
				c4.45,5.91,8.18,12.18,11.07,19c-2.05-4.86-4.1-9.71-6.15-14.57c2.07,5.2,3.58,10.48,4.41,16.02
				c-0.73-5.41-1.45-10.81-2.18-16.22c0.66,5.31,0.7,10.56,0.11,15.88c0.73-5.41,1.45-10.81,2.18-16.22
				c-0.71,5.26-2.02,10.29-4.03,15.21c2.05-4.86,4.1-9.71,6.15-14.57c-1.73,3.92-3.83,7.55-6.42,10.97
				c3.18-4.12,6.36-8.23,9.54-12.35c-2.44,3.02-5.13,5.66-8.2,8.05c4.12-3.18,8.23-6.36,12.35-9.54
				c-7.09,5.16-15.15,8.43-23.07,12.07c-11.91,5.47-23.41,13.16-32.44,22.65c-12.93,13.58-19.87,27.2-26.46,44.46
				c-4.78,12.5-6.04,25.86-7.72,39.04c-2.6,20.37-2.08,41.01-1.03,61.47c1.11,21.56,2.74,43.09,4.87,64.57
				c2.86,28.87,6.64,57.67,11.05,86.35c19.61-25.74,39.21-51.48,58.82-77.22c-37.81-2.24-75.72-1.18-113.34,3.18
				c19.61,25.74,39.21,51.48,58.82,77.22c1.59-10.23,3.18-20.47,4.77-30.7c1.36-8.78,1.74-18.53,4.91-26.88
				c-2.05,4.86-4.1,9.71-6.15,14.57c0.56-1.2,1.13-2.19,1.91-3.26c-3.18,4.12-6.36,8.23-9.54,12.35c0.52-0.64,1.12-1.21,1.8-1.69
				c-4.12,3.18-8.23,6.36-12.35,9.54c0.36-0.22,0.72-0.43,1.09-0.65c-30.6-17.56-61.19-35.11-91.79-52.67
				c0.16,2.21,0.32,4.41,0.49,6.62c0.78,10.64,2.87,21.45,8.33,30.79c3.18,4.12,6.36,8.23,9.54,12.35
				c5.53,5.95,12.07,10.15,19.63,12.61c4.76,2.76,9.89,4.15,15.39,4.16c5.41,1.45,10.81,1.45,16.22,0
				c12.06-1.62,27.13-6.8,35.03-16.78c6.99-8.83,14.21-17.67,19.9-27.44c5.72-9.81,10.03-20.5,14.2-31.02
				c6.76-17.02,9.4-35.19,10.92-53.37c-0.73-5.41-1.45-10.81-2.18-16.22c-1.89-7.94-5.53-14.85-10.92-20.74
				c-7.79-10.08-18.91-18.95-31.69-21.86c-10.72-2.44-21.71-2.44-32.43,0c-14.01,3.19-29.68,15.41-36.46,28.03
				c-12.11,22.57-21.99,46.94-27.9,71.9c-0.73,5.41-1.45,10.81-2.18,16.22c-0.32,8.4,1.43,16.23,5.25,23.5
				c4.95,11.72,13.39,23.06,24.96,29.17c9.58,5.06,19.96,7.84,30.79,8.33c15.89,0.71,31.78-7.49,43.13-17.87
				c11.6-10.6,18.29-24.77,23.17-39.38c1.9-5.69,3.01-11.59,5.25-17.17c-2.05,4.86-4.1,9.71-6.15,14.57
				c0.87-1.98,1.86-3.81,3.08-5.59c-3.18,4.12-6.36,8.23-9.54,12.35c1.13-1.45,2.32-2.69,3.71-3.9c-4.12,3.18-8.23,6.36-12.35,9.54
				c9.4-7.11,20.2-12.42,27.87-21.69c5.22-6.31,10.52-12.7,14.17-20.07c3.69-7.46,6.66-15.35,9.88-22.98
				c-2.05,4.86-4.1,9.71-6.15,14.57c1.11-2.63,2.09-5.33,3.78-7.65c-3.18,4.12-6.36,8.23-9.54,12.35c0.32-0.3,0.64-0.6,0.96-0.9
				c-4.12,3.18-8.23,6.36-12.35,9.54c0.45-0.25,0.9-0.5,1.35-0.75c-4.86,2.05-9.71,4.1-14.57,6.15c0.5-0.14,1-0.28,1.5-0.41
				c-5.41,0.73-10.81,1.45-16.22,2.18c1.72-0.17,3.17-0.12,4.89,0.06c-5.41-0.73-10.81-1.45-16.22-2.18
				c4.93,0.8,9.55,2.56,14.37,3.8c6.81,1.76,14.15,2.68,21.11,3.15c1.95,0.13,3.75,0.07,5.7-0.13c13.73-1.42,25.65-3.58,37.67-11
				c15.92-9.83,26.27-24.48,32.06-42.1c-39.21,0-78.43,0-117.64,0c0.8,4.47,1.51,8.95,2.13,13.45c-0.73-5.41-1.45-10.81-2.18-16.22
				c3.62,27.51,2.98,54.91-0.23,82.42c-3.19,27.36-7.81,54.6-7.78,82.22c0.73,5.41,1.45,10.81,2.18,16.22
				c1.89,7.94,5.53,14.85,10.92,20.74c7.79,10.08,18.91,18.95,31.69,21.86c10.72,2.44,21.71,2.44,32.43,0
				c7.94-1.89,14.85-5.53,20.74-10.92c6.64-4.3,11.88-10.01,15.71-17.11c1.52-2.01,2.7-4.07,3.78-6.35
				c3.03-6.38,6.32-13.18,7.95-20.13c2.19-9.35,3.42-19.35,3.42-29c0.01-11.01-1.21-21.88-0.65-32.92
				c0.31-6.24,0.78-12.47,0.65-18.72c-0.22-10.76-2-21.56-3.79-32.14c-2.11-12.45-5.19-24.68-6.94-37.2
				c0.73,5.41,1.45,10.81,2.18,16.22c-2.5-18.79-3.28-37.74-3.15-56.69c0.12-18.1,0.06-36.71,2.05-54.72
				c-0.73,5.41-1.45,10.81-2.18,16.22c0.38-2.73,0.96-5.3,2-7.86c-2.05,4.86-4.1,9.71-6.15,14.57c0.59-1.2,1.2-2.21,1.99-3.29
				c-3.18,4.12-6.36,8.23-9.54,12.35c0.54-0.67,1.15-1.27,1.81-1.81c-4.12,3.18-8.23,6.36-12.35,9.54c0.78-0.63,1.64-1.15,2.56-1.56
				c-4.86,2.05-9.71,4.1-14.57,6.15c2.17-0.83,4.27-1.27,6.57-1.59c-5.41,0.73-10.81,1.45-16.22,2.18c14.95-1.68,30.25-2.55,45-5.45
				c4.65-0.91,8.77-3,13.14-4.84c8.17-3.45,10.3-4.85,17.29-10.25c8.1-6.26,12.64-12.26,18.93-20.69c1.54-2.07,3.07-4.16,4.56-6.27
				c2.87-4.04,5.65-8.18,7.92-12.6c4.41-8.54,8.54-17.68,10.89-27.04c3.77-15.05,4.65-30.83,4.68-46.3c-40.67,0-81.33,0-122,0
				c0.15,7.26-0.24,14.47-1.15,21.67c0.73-5.41,1.45-10.81,2.18-16.22c-1.69,12.01-4.85,23.63-9.49,34.83
				c2.05-4.86,4.1-9.71,6.15-14.57c-0.24,0.55-0.48,1.11-0.72,1.66c37.89,10.26,75.78,20.53,113.67,30.79
				c2.83-28.01,5.89-56.8,4.25-84.97c-1.02-17.54-3.09-35.92-9.57-52.41c-5.47-13.93-11.36-29.07-22.6-39.62
				c-12.82-12.03-28.69-19.76-46.48-19.99c-6.14-0.08-12.5,0.38-18.39,2.31c-4.86,2.05-9.71,4.1-14.57,6.15
				c-4.47,3.36-8.89,6.79-13.27,10.27c-7.56,7.61-12.79,16.58-15.69,26.92c-2.91,10.81-2.91,21.62,0,32.43
				c5.1,13.69,7.73,19.78,17.53,30.52c4.71,5.16,10.42,9.51,16.47,12.99c13.19,7.58,32.23,10.93,47,6.15
				c4.86-2.05,9.71-4.1,14.57-6.15c7.11-3.83,12.81-9.07,17.11-15.71c7.95-10.29,13.7-23.6,13.1-36.96
				c-0.69-15.35-5.62-32.86-17.87-43.13c-15.92-13.36-32.54-25-51.52-33.48c-17.7-7.91-35.62-15.32-54.8-18.66
				c-12.01-2.1-24.34-3.95-36.58-4.22c-12.16-0.26-24.34,1.59-36.29,3.5c-7.13,1.14-14.06,3.07-20.76,5.76
				c-11.32,4.54-22.58,9.01-32.54,16.12c-9.91,7.08-19.71,14.63-28.3,23.31c-8.43,8.51-15.61,17.98-22.88,27.48
				c-4.59,6.01-8.85,12.23-12.41,18.91c-5.68,10.68-10.7,22.15-13.99,33.82c-0.95,3.36-1.66,6.76-2.19,10.2
				c-1.29,8.39-2.78,16.99-2.94,25.53c-0.06,3.38,0.13,6.74,0.5,10.11c0.92,8.4,1.74,17.11,3.91,25.34
				c1.47,5.56,3.83,10.72,6.06,16.01c2.23,5.28,4.27,10.56,7.35,15.41c7.91,12.43,16.71,21.9,28.13,30.72
				c16.86,13.03,36.23,21.62,56.92,26.86c7.02,1.78,14.15,3.34,21.29,4.56c8.41,1.44,16.97,2.76,25.49,3.34
				c6.44,0.44,12.46-0.55,18.89-1.41c12.19-1.64,18.61-3.69,30.51-9.42c7.2-3.47,13.79-8.82,19.66-14.09
				c5.43-4.87,9.83-11.25,13.97-17.11c1.8-2.55,3.26-5.18,4.53-8.03c4.68-10.46,8.82-20.1,10.43-31.35
				c1.61-11.32,3.37-22.67,3.3-34.14c-0.14-21.98-7.18-42.32-22.21-58.54c-2.57-2.77-5.63-4.78-8.66-7.12
				c-3.32-2.56-6.1-5.04-9.72-6.91c-7.03-3.63-14.82-7.12-22.73-8.5c-16.2-2.83-30.85-3.45-47.01,0.97
				c-15.22,4.16-28.53,12.06-40.17,22.56c-5.47,4.94-10.24,11.37-14.16,17.46c-0.79,1.24-1.44,2.49-2.07,3.82
				c-2.63,5.52-5.62,11.56-7.17,17.54c-2.01,7.78-3.37,16.19-2.68,24.27c1.29,14.93,3.99,24.9,10.5,38.39
				c3.5,7.25,9.05,13.84,14.3,19.79c5.62,6.35,12.79,11.34,19.77,16.07c5.02,3.4,10.68,5.53,16.24,7.88
				c5.9,2.49,11.62,4.95,17.76,6.73c28.99,8.41,59.66,7.83,86.59-6.75c6.74-3.65,13.2-8.95,18.7-14.11
				c1.21-1.13,2.24-2.37,3.28-3.66c3.91-4.85,8.43-9.74,11.39-15.29c10.43-19.59,13.04-40.43,8.24-62.06
				c-6.34-28.65-28.44-50.03-51.39-66.3c-2.72-1.93-5.58-3.69-8.57-5.17c-7.57-3.74-15.62-7.54-23.87-9.64
				c-16.53-4.19-32.58-4.05-49.16-0.33c-7.58,1.7-15.13,5.24-21.96,8.81c-3.56,1.86-6.64,4.61-9.78,7.03
				c-3.21,2.48-6.51,4.75-9.37,7.62c-11.06,11.09-17.87,27.47-17.87,43.13c0,14.96,6.65,32.83,17.87,43.13
				c11.63,10.67,26.89,18.59,43.13,17.87c16.17-0.72,31.48-6.18,43.13-17.87c1.03-1.03,2.05-1.95,3.19-2.85
				c-4.12,3.18-8.23,6.36-12.35,9.54c1.97-1.39,3.98-2.5,6.19-3.45c-4.86,2.05-9.71,4.1-14.57,6.15c2.73-1.02,5.46-1.69,8.36-2.08
				c-5.41,0.73-10.81,1.45-16.22,2.18c2.92-0.27,5.77-0.24,8.69,0.08c-5.41-0.73-10.81-1.45-16.22-2.18
				c3.74,0.56,7.24,1.58,10.75,2.97c-4.86-2.05-9.71-4.1-14.57-6.15c5.14,2.25,9.81,5.16,14.28,8.55
				c-4.12-3.18-8.23-6.36-12.35-9.54c4.74,3.75,9.11,7.79,12.94,12.47c-3.18-4.12-6.36-8.23-9.54-12.35c2.31,3,4.26,6.07,5.85,9.51
				c-2.05-4.86-4.1-9.71-6.15-14.57c0.98,2.42,1.69,4.8,2.13,7.37c-0.73-5.41-1.45-10.81-2.18-16.22c0.22,2.07,0.24,4.04,0.05,6.11
				c0.73-5.41,1.45-10.81,2.18-16.22c-0.32,1.94-0.79,3.73-1.49,5.56c2.05-4.86,4.1-9.71,6.15-14.57c-0.78,1.72-1.68,3.28-2.75,4.83
				c3.18-4.12,6.36-8.23,9.54-12.35c-1.47,1.88-3.06,3.52-4.88,5.06c4.12-3.18,8.23-6.36,12.35-9.54c-2.3,1.77-4.7,3.21-7.34,4.42
				c4.86-2.05,9.71-4.1,14.57-6.15c-2.94,1.2-5.86,1.97-9,2.5c5.41-0.73,10.81-1.45,16.22-2.18c-4.9,0.59-9.69,0.46-14.58-0.16
				c5.41,0.73,10.81,1.45,16.22,2.18c-8.19-1.26-16.25-3.49-23.9-6.65c4.86,2.05,9.71,4.1,14.57,6.15
				c-4.18-1.85-8.05-4.03-11.68-6.81c4.12,3.18,8.23,6.36,12.35,9.54c-2.11-1.77-3.98-3.64-5.72-5.78
				c3.18,4.12,6.36,8.23,9.54,12.35c-1.62-2.2-2.95-4.44-4.07-6.92c2.05,4.86,4.1,9.71,6.15,14.57c-0.78-2.01-1.35-3.97-1.75-6.09
				c0.73,5.41,1.45,10.81,2.18,16.22c-0.26-2.14-0.29-4.16-0.09-6.32c-0.73,5.41-1.45,10.81-2.18,16.22
				c0.28-1.7,0.68-3.29,1.26-4.91c-2.05,4.86-4.1,9.71-6.15,14.57c0.82-1.94,1.81-3.69,3.04-5.4c-3.18,4.12-6.36,8.23-9.54,12.35
				c1.6-2.01,3.36-3.72,5.38-5.31c-4.12,3.18-8.23,6.36-12.35,9.54c2.14-1.54,4.36-2.81,6.76-3.9c-4.86,2.05-9.71,4.1-14.57,6.15
				c3.31-1.37,6.66-2.28,10.21-2.79c-5.41,0.73-10.81,1.45-16.22,2.18c3.17-0.34,6.21-0.32,9.37,0.06
				c-5.41-0.73-10.81-1.45-16.22-2.18c2.37,0.39,4.61,0.96,6.87,1.79c-4.86-2.05-9.71-4.1-14.57-6.15c1.73,0.76,3.29,1.62,4.84,2.71
				c-4.12-3.18-8.23-6.36-12.35-9.54c1.1,0.91,2.01,1.8,2.94,2.88c-3.18-4.12-6.36-8.23-9.54-12.35c0.92,1.28,1.59,2.49,2.24,3.93
				c-2.05-4.86-4.1-9.71-6.15-14.57c0.53,1.53,0.91,2.96,1.22,4.55c-0.73-5.41-1.45-10.81-2.18-16.22
				c1.03,7.75,0.34,15.89-0.59,23.62c0.73-5.41,1.45-10.81,2.18-16.22c-0.81,6-2.09,11.86-4.37,17.49c2.05-4.86,4.1-9.71,6.15-14.57
				c-1.25,2.85-2.71,5.49-4.53,8.03c3.18-4.12,6.36-8.23,9.54-12.35c-1.63,2.09-3.4,3.92-5.45,5.6c4.12-3.18,8.23-6.36,12.35-9.54
				c-1.99,1.48-4.04,2.67-6.29,3.72c4.86-2.05,9.71-4.1,14.57-6.15c-2.57,1.01-5.11,1.71-7.83,2.18c5.41-0.73,10.81-1.45,16.22-2.18
				c-5.6,0.73-11.11,0.43-16.69-0.31c5.41,0.73,10.81,1.45,16.22,2.18c-14.68-2.21-29.66-5.55-43.44-11.14
				c4.86,2.05,9.71,4.1,14.57,6.15c-6.2-2.63-12.03-5.81-17.39-9.9c4.12,3.18,8.23,6.36,12.35,9.54c-3.64-2.93-6.89-6.16-9.79-9.83
				c3.18,4.12,6.36,8.23,9.54,12.35c-2.76-3.72-5.03-7.66-6.91-11.9c2.05,4.86,4.1,9.71,6.15,14.57
				c-2.18-5.27-3.64-10.68-4.51-16.31c0.73,5.41,1.45,10.81,2.18,16.22c-0.89-6.74-0.89-13.44-0.06-20.19
				c-0.73,5.41-1.45,10.81-2.18,16.22c1.1-7.6,3.24-14.87,6.17-21.96c-2.05,4.86-4.1,9.71-6.15,14.57
				c4.25-9.78,9.86-18.76,16.36-27.18c-3.18,4.12-6.36,8.23-9.54,12.35c7.66-9.7,16.21-18.72,25.92-26.39
				c-4.12,3.18-8.23,6.36-12.35,9.54c6.19-4.73,12.73-8.71,19.86-11.86c-4.86,2.05-9.71,4.1-14.57,6.15
				c7.92-3.33,16.12-5.51,24.62-6.74c-5.41,0.73-10.81,1.45-16.22,2.18c10.79-1.39,21.59-1.19,32.37,0.19
				c-5.41-0.73-10.81-1.45-16.22-2.18c14.81,2.07,29.14,6.28,42.91,12.08c-4.86-2.05-9.71-4.1-14.57-6.15
				c13.47,5.81,26.38,12.91,38.03,21.87c-4.12-3.18-8.23-6.36-12.35-9.54c1.4,1.11,2.79,2.24,4.16,3.39
				c24.64-31.94,49.28-63.87,73.92-95.81c-0.81-0.41-1.57-0.9-2.26-1.48c4.12,3.18,8.23,6.36,12.35,9.54
				c-0.7-0.58-1.32-1.24-1.87-1.96c3.18,4.12,6.36,8.23,9.54,12.35c-0.55-0.73-1.01-1.5-1.37-2.33c2.05,4.86,4.1,9.71,6.15,14.57
				c-0.16-0.42-0.32-0.85-0.47-1.27c-5.23,19.78-10.46,39.57-15.69,59.35c0.31-0.24,0.62-0.49,0.92-0.73
				c-8.97,5.23-17.94,10.46-26.92,15.69c0.35-0.09,0.7-0.18,1.05-0.27c-5.41,0.73-10.81,1.45-16.22,2.18
				c0.38,0.04,0.75,0.09,1.13,0.13c-5.41-0.73-10.81-1.45-16.22-2.18c0.38,0.16,0.77,0.31,1.15,0.47c-4.86-2.05-9.71-4.1-14.57-6.15
				c0.38,0.24,0.75,0.49,1.13,0.73c-4.12-3.18-8.23-6.36-12.35-9.54c0.75,0.58,1.41,1.23,2,1.98c-3.18-4.12-6.36-8.23-9.54-12.35
				c2.16,3.13,3.8,6.63,5.33,10.1c-2.05-4.86-4.1-9.71-6.15-14.57c3.47,8.32,5.61,16.96,6.9,25.87c-0.73-5.41-1.45-10.81-2.18-16.22
				c1.99,15.13,1.6,30.38,0.81,45.59c-0.88,17.11-2.2,34.2-3.92,51.25c0.73,5.41,1.45,10.81,2.18,16.22
				c1.89,7.94,5.53,14.85,10.92,20.74c7.79,10.08,18.91,18.95,31.69,21.86c10.72,2.44,21.71,2.44,32.43,0
				c7.94-1.89,14.85-5.53,20.74-10.92c6.64-4.3,11.88-10.01,15.71-17.11c6.08-14.12,12.08-27.91,15.03-43.03
				c2.93-15.03,4.97-30.57,4.66-45.93c-0.33-15.84-6.58-31.84-17.87-43.13c-10.58-10.58-27.94-18.55-43.13-17.87
				c-15.78,0.71-32.14,5.89-43.13,17.87c-10.97,11.95-17.83,26.59-17.87,43.13c-0.01,7.36-0.11,14.7-0.99,22.02
				c0.73-5.41,1.45-10.81,2.18-16.22c-0.77,5.44-2.02,10.67-4.03,15.79c2.05-4.86,4.1-9.71,6.15-14.57
				c-3.71,8.59-9.17,16.13-14.7,23.61c3.18-4.12,6.36-8.23,9.54-12.35c-1.02,1.3-2.02,2.44-3.22,3.58
				c4.12-3.18,8.23-6.36,12.35-9.54c-1.26,0.97-2.42,1.69-3.83,2.41c4.86-2.05,9.71-4.1,14.57-6.15c-2.9,1.18-5.84,1.81-8.93,2.25
				c5.41-0.73,10.81-1.45,16.22-2.18c-13.97,1.71-28.02,2.69-41.92,4.96c-13.34,2.17-26.4,9.41-36.04,18.84
				c-10.18,9.96-14.64,18.93-19.49,32.02c-4.34,11.71-4.41,24.85-4.97,37.25c-0.43,9.65-0.83,19.31-1.07,28.97
				c-0.46,19.27-0.28,38.59,1.61,57.79c1.41,14.35,3.27,28.72,6.02,42.87c1.79,9.18,4,18.26,5.27,27.54
				c-0.73-5.41-1.45-10.81-2.18-16.22c1.57,13.04-0.21,25.91-0.15,38.96c0.05,10.5,1.64,20.96,0.47,31.45
				c0.73-5.41,1.45-10.81,2.18-16.22c-0.49,3.46-1.28,6.71-2.58,9.95c2.05-4.86,4.1-9.71,6.15-14.57c-1.05,2.29-2.27,4.34-3.78,6.35
				c37.89,10.26,75.78,20.53,113.67,30.79c-0.04-30.23,5.52-59.98,8.63-89.96c3.65-35.12,1.28-69.59-4.94-104.35
				c-2.05-4.86-4.1-9.71-6.15-14.57c-3.83-7.11-9.07-12.81-15.71-17.11c-10.29-7.95-23.6-13.7-36.96-13.1
				c-10.83,0.49-21.2,3.26-30.79,8.33c-13.83,7.31-23.32,22.08-28.03,36.46c-0.13,0.38-0.25,0.77-0.38,1.15
				c2.05-4.86,4.1-9.71,6.15-14.57c-0.29,0.73-0.67,1.41-1.14,2.05c3.18-4.12,6.36-8.23,9.54-12.35c-0.79,0.96-1.53,1.67-2.51,2.44
				c4.12-3.18,8.23-6.36,12.35-9.54c-1.06,0.68-2.06,1.2-3.22,1.7c4.86-2.05,9.71-4.1,14.57-6.15c-1.23,0.42-2.39,0.72-3.66,0.97
				c5.41-0.73,10.81-1.45,16.22-2.18c-2.14,0.28-4.17,0.3-6.31,0.06c5.41,0.73,10.81,1.45,16.22,2.18
				c-4.64-0.81-8.99-2.44-13.53-3.63c-8.5-2.24-17.46-3.7-26.22-3.31c-23.56,1.04-43.8,12.43-56.47,32.27
				c-4.56,7.13-7.34,16.08-10.52,23.64c2.05-4.86,4.1-9.71,6.15-14.57c-2.19,5.14-4.48,10.17-7.76,14.72
				c3.18-4.12,6.36-8.23,9.54-12.35c-1.57,1.98-3.24,3.72-5.18,5.33c4.12-3.18,8.23-6.36,12.35-9.54
				c-7.58,5.57-15.49,10.03-22.69,16.36c-3.36,2.96-5.69,6.47-8.47,10.07c-2.82,3.65-5.37,6.58-7.33,10.58
				c-3.74,7.62-7.09,15.7-9.36,23.92c-1.12,4.06-2.15,8.14-3.68,12.07c2.05-4.86,4.1-9.71,6.15-14.57
				c-1.01,2.37-2.18,4.55-3.72,6.63c3.18-4.12,6.36-8.23,9.54-12.35c-0.84,1-1.68,1.88-2.65,2.76
				c33.98,19.78,67.97,39.57,101.95,59.35c3.06-12.93,7.18-25.53,12.33-37.79c-2.05,4.86-4.1,9.71-6.15,14.57
				c2.86-6.65,6-13.16,9.42-19.55c-37.89-10.26-75.78-20.53-113.67-30.79c-0.19,2.22-0.42,4.42-0.69,6.63
				c0.73-5.41,1.45-10.81,2.18-16.22c-1.53,11.05-4.44,21.75-8.68,32.07c2.05-4.86,4.1-9.71,6.15-14.57
				c-4.37,10.26-9.95,19.85-16.75,28.69c3.18-4.12,6.36-8.23,9.54-12.35c-0.34,0.44-0.69,0.87-1.03,1.31
				c34.71,14.38,69.42,28.76,104.13,43.13c-0.16-2.21-0.32-4.41-0.49-6.62c-0.03-11.01-2.81-21.27-8.33-30.79
				c-5.42-9.17-12.72-16.46-21.88-21.88c-18.67-10.92-42.93-11.18-61.58,0c-16.47,9.88-27.49,25.15-33.29,43.28
				c-1.75,5.47-2.22,11.37-3.1,17.02c-2.04,13.11-4.07,26.23-6.11,39.34c-2.91,10.81-2.91,21.62,0,32.43
				c1.89,7.94,5.53,14.85,10.92,20.74c4.3,6.64,10.01,11.88,17.11,15.71c9.51,5.52,19.78,8.29,30.79,8.33
				c37.62-4.35,75.53-5.41,113.34-3.18c18.94,1.12,36.78-9.64,47.9-24.04c5.39-5.89,9.03-12.81,10.92-20.74
				c2.91-10.81,2.91-21.62,0-32.43c-1.29-8.41-2.51-16.83-3.65-25.27c0.73,5.41,1.45,10.81,2.18,16.22
				c-3.85-28.88-6.76-57.87-8.74-86.94c-1.91-28.08-3.96-56.71-0.23-84.72c-0.73,5.41-1.45,10.81-2.18,16.22
				c1.16-8.04,2.96-15.91,6-23.46c-2.05,4.86-4.1,9.71-6.15,14.57c1.96-4.57,4.33-8.83,7.33-12.8c-3.18,4.12-6.36,8.23-9.54,12.35
				c2.22-2.75,4.61-5.19,7.33-7.44c-4.12,3.18-8.23,6.36-12.35,9.54c10.55-8.11,23.62-11.46,34.82-18.44
				c11.87-7.4,20.85-15.61,29.21-26.42c8.51-11.01,13.48-20.88,18.38-34.36c3.68-10.15,4.82-21.82,5.5-32.37
				c0.69-10.85-1.15-22.26-3.36-32.76c-2.3-10.88-7.18-21.46-12.1-31.33c-5.01-10.06-12.33-18.88-19.3-27.59
				c-4.15-5.19-8.74-9.98-13.71-14.39c-8.7-7.72-18.01-15.06-27.82-21.33c-21.57-13.8-45.1-18.48-70.12-20.91
				c-15.82-1.53-31.81-1.9-47.7-1.68c-7.6,0.11-15.21,0.29-22.76,1.18c-8.19,0.96-16.76,1.69-24.81,3.81
				c-8.1,2.13-15.98,5.79-23.46,9.39c-3.5,1.69-6.72,3.81-9.82,6.13c-6.82,5.1-13.75,10.2-19.93,16.1
				c-5.72,5.47-11.2,11.33-16.28,17.39c-5.52,6.6-11.05,13.38-15.72,20.62c-4.67,7.24-7.8,15.64-10.86,23.6
				c-2.67,6.95-4.03,14.31-6.85,21.2c2.05-4.86,4.1-9.71,6.15-14.57c-1.04,2.32-2.22,4.46-3.69,6.53c3.18-4.12,6.36-8.23,9.54-12.35
				c-0.31,0.4-0.63,0.79-0.94,1.19c-5.95,5.53-10.15,12.07-12.61,19.63c-3.82,7.27-5.57,15.1-5.25,23.5
				c0,14.96,6.65,32.83,17.87,43.13c11.63,10.67,26.89,18.59,43.13,17.87C159.87,317.08,178.11,312.27,187.93,299.89L187.93,299.89z
				"
        />
      </g>
    </g>
    <g>
      <g>
        <path
          class="st0"
          d="M175.98,296.44c15.64,0,32.07-6.8,43.13-17.87c10.58-10.58,18.55-27.94,17.87-43.13
				c-0.71-15.78-5.89-32.14-17.87-43.13c-11.93-10.96-26.61-17.87-43.13-17.87c-15.64,0-32.07,6.8-43.13,17.87
				c-10.58,10.58-18.55,27.94-17.87,43.13c0.71,15.78,5.89,32.14,17.87,43.13C144.78,289.53,159.45,296.44,175.98,296.44
				L175.98,296.44z"
        />
      </g>
    </g>
    <g>
      <g>
        <path
          class="st1"
          d="M180.06,181.45c-7.88-0.94-13.54,1.45-20.2,4.26c-3.64,1.54-5.03,1.93-7.65,3.56
				c8.5-2.3,16.99-4.6,25.49-6.89c-0.31,0-0.62-0.01-0.93-0.01c11.9,4.93,23.81,9.86,35.71,14.79c-0.21-0.21-0.43-0.42-0.64-0.63
				c4.93,11.9,9.86,23.81,14.79,35.71c0.01-0.2,0.01-0.41,0.02-0.61c-2.3,8.5-4.6,16.99-6.89,25.49c0.12-0.16,0.25-0.33,0.37-0.49
				c-10.06,7.74-20.12,15.47-30.18,23.21c0.19-0.05,0.38-0.1,0.57-0.15c11.68-3.1,24.46-12.38,30.18-23.21
				c6.02-11.39,9.82-26.36,5.09-38.91c-1.54-4.09-3.35-9.01-5.4-12.88c-3.17-5.89-7.51-10.61-13.01-14.17
				c-3.15-3.13-6.86-5.29-11.14-6.49c-7.82-3.3-4.84-2.57-13.38-3.71c-4.47-1.2-8.95-1.2-13.42,0c-6.72,0.3-12.98,2.3-18.78,5.99
				c-12.96,8.26-22.4,20.97-26.47,35.83c-2.1,6.71-2.41,13.42-0.9,20.14c0.3,6.72,2.3,12.98,5.99,18.78
				c2.63,3.41,5.26,6.81,7.9,10.22c6.3,6.26,13.73,10.59,22.28,12.99c10.08,1.46,20.19,2.88,30.35,3.75c0-33.67,0-67.33,0-101
				c-0.81,0.1-1.62,0.1-2.43-0.01c4.47,0.6,8.95,1.2,13.42,1.8c-6.99-1.09-13.53-2.76-20.8-3.19c-3.11-0.19-6.22,0.12-9.33-0.02
				c-12.56-0.6-26.97,6.06-35.71,14.79c-8.76,8.76-15.35,23.13-14.79,35.71c0.58,13.06,4.88,26.61,14.79,35.71
				c10.14,9.31,21.83,14.13,35.71,14.79c3.56,0.17,7.1-0.23,10.65,0.17c-4.47-0.6-8.95-1.2-13.42-1.8
				c7.23,1.34,14.49,3.49,21.91,3.05c13.42-0.8,26-5.09,35.71-14.79c8.76-8.76,15.35-23.13,14.79-35.71
				c-0.58-13.06-4.88-26.61-14.79-35.71c-3.41-2.63-6.81-5.26-10.22-7.9c-7.88-4.57-16.37-6.87-25.49-6.89
				c-4.72-0.4-9.42-0.92-14.11-1.54c4.47,0.6,8.95,1.2,13.42,1.8c-0.94-0.13-1.87-0.26-2.81-0.4
				c11.76,20.71,23.51,41.41,35.27,62.12c0.17-0.82,0.44-1.61,0.8-2.37c-1.7,4.02-3.39,8.04-5.09,12.06
				c0.36-0.76,0.8-1.46,1.32-2.12c-2.63,3.41-5.26,6.81-7.9,10.22c0.28-0.31,0.56-0.62,0.83-0.93c-3.41,2.63-6.81,5.26-10.22,7.9
				c0.1-0.08,0.21-0.15,0.31-0.23c-12.97,1.7-25.94,3.39-38.91,5.09c0.21,0.09,0.42,0.18,0.64,0.27
				c-11.76-11.76-23.51-23.51-35.27-35.27c0.1,0.27,0.2,0.54,0.31,0.81c11.76-20.71,23.51-41.41,35.27-62.12
				c-12.33,3.28-25.12,12.51-31.12,23.85c-4.12,7.78-7.26,16.92-6.9,25.79c0.35,8.7,2.12,18.4,6.89,25.79
				c2.25,3.49,5.68,7.84,8.54,10.85c4.57,4.92,9.99,8.41,16.25,10.44c3.94,2.28,8.19,3.43,12.74,3.45c2.52,0.62,5.07,0.92,7.64,0.91
				c4.47-0.6,8.95-1.2,13.42-1.8c4.42-1.22,9.77-3.65,13.68-6.1c-8.5,2.3-16.99,4.6-25.49,6.89c0.25,0.03,0.49,0.06,0.74,0.09
				c6.95,0.26,13.44-1.19,19.46-4.35c6.26-2.04,11.68-5.52,16.25-10.44c8.76-8.76,15.35-23.13,14.79-35.71
				c-0.58-13.06-4.88-26.61-14.79-35.71c-3.41-2.63-6.81-5.26-10.22-7.9C197.67,183.78,189.18,181.48,180.06,181.45L180.06,181.45z"
        />
      </g>
    </g>
    <g>
      <g>
        <path
          class="st1"
          d="M320.32,197.7c-6.91,10.72-12.07,23.02-14.78,35.49c20.11-2.63,40.21-5.26,60.32-7.88
				c-0.24-0.34-0.47-0.69-0.71-1.03c1.5,5.55,3,11.1,4.51,16.66c-0.03-0.42-0.06-0.84-0.09-1.26c-1.5,5.55-3,11.1-4.51,16.66
				c0.19-0.38,0.37-0.75,0.56-1.13c3.96-8.02,5.76-16.58,3.33-25.43c-2.11-7.65-8.03-15.95-15.17-19.72
				c-16.41-8.67-35.13-3.67-45.15,11.84c-5.13,7.94-8.22,16.56-8.91,26.01c-0.33,4.59-0.01,9.28,1.26,13.75
				c0.63,2.22,1.59,4.21,1.95,6.51c-0.39-2.92-0.79-5.85-1.18-8.77c-0.07,0.54-0.14,1.08-0.21,1.62
				c13.92-10.61,27.85-21.21,41.77-31.82c-0.41-0.09-0.83-0.18-1.24-0.27c2.63,1.11,5.26,2.22,7.88,3.33
				c-0.34-0.26-0.68-0.52-1.02-0.77c3.95,3.95,7.89,7.89,11.84,11.84c-0.22-0.37-0.43-0.74-0.65-1.11c1.5,5.55,3,11.1,4.51,16.66
				c-0.04-0.42-0.09-0.84-0.13-1.27c-0.9-8.97-3.08-16.75-9.67-23.33c-5.72-5.72-15.11-10.03-23.33-9.67
				c-8.53,0.38-17.39,3.19-23.33,9.67c-6.25,6.81-8.74,14.16-9.67,23.33c-1.09,10.89,4.91,22.96,12.67,30.14
				c7.16,6.63,16.15,10.35,25.68,11.77c16.97,2.53,35.74,3.83,51.14-5.45c18.29-11.02,27.81-32.82,21.16-53.57
				c-2.05-6.39-4.77-13.97-8.01-19.7c-3.47-6.15-8.5-10.22-12.74-15.57c1.72,2.23,3.44,4.45,5.16,6.68
				c-0.52-0.71-0.96-1.48-1.29-2.29c1.11,2.63,2.22,5.26,3.33,7.88c-0.13-0.43-0.27-0.85-0.4-1.28
				c-16.16,12.42-32.32,24.84-48.48,37.27c3.28,1.63,7.05,3.69,10.69,4.19c7.66,1.07,14.1,1.45,21.49-1.66
				c6.34-2.68,12.47-7.25,15.78-13.5c6.66-12.6,5.91-29.86-5.16-39.99c-5.81-5.32-12.08-9.4-19.86-11.32
				c-16.06-3.97-32.49,3.84-38.93,19.11c-6.47,15.33-0.54,32.37,13.5,41.21c1.83,1.15,3.58,2.37,5.29,3.7
				c-2.23-1.72-4.45-3.44-6.68-5.16c3.36,2.77,6.31,5.81,8.98,9.24c-1.72-2.23-3.44-4.45-5.16-6.68c1.35,1.87,2.55,3.73,3.58,5.8
				c-1.11-2.63-2.22-5.26-3.33-7.88c0.66,1.69,1.05,3.11,1.29,4.9c-0.39-2.92-0.79-5.85-1.18-8.77c0.08,1.08,0.04,2.16-0.13,3.24
				c0.39-2.92,0.79-5.85,1.18-8.77c-0.33,1.68-0.76,3.14-1.36,4.73c1.11-2.63,2.22-5.26,3.33-7.88c-2.88,6.23-7.41,10.51-9.12,17.54
				c-1.91,7.9-1.56,15.68,1.61,23.19c2.93,6.93,8,14.06,15.1,17.18c7.03,3.09,13.2,4.97,21.04,3.92c6.96-0.94,14.03-3.79,18.95-9.08
				c5.79-6.23,8.31-12.23,11.11-20.14c-1.11,2.63-2.22,5.26-3.33,7.88c0.22-0.6,0.53-1.14,0.93-1.63c-1.72,2.23-3.44,4.45-5.16,6.68
				c0.22-0.19,0.45-0.37,0.67-0.56c-4.85,2.83-9.71,5.66-14.56,8.49c0.29-0.11,0.58-0.21,0.87-0.32
				c13.25-4.91,24.91-16.56,24.23-31.82c-0.26-5.86-1.77-11.47-4.51-16.66c-4.2-7.95-11.81-12-19.72-15.17
				c-0.45-0.18-0.9-0.36-1.35-0.54c2.63,1.11,5.26,2.22,7.88,3.33c-1.79-0.86-3.39-1.82-4.98-3c2.23,1.72,4.45,3.44,6.68,5.16
				c-1.52-1.27-2.84-2.61-4.09-4.15c1.72,2.23,3.44,4.45,5.16,6.68c-1.16-1.61-2.1-3.23-2.92-5.03c1.11,2.63,2.22,5.26,3.33,7.88
				c-3.27-8.19-5.5-13.83-11.68-20.3c-11.95-12.51-34.8-12.93-46.67,0c-12.32,13.42-12.75,33.32,0,46.67c0.3,0.31,0.6,0.63,0.9,0.94
				c-1.72-2.23-3.44-4.45-5.16-6.68c0.52,0.71,0.95,1.48,1.28,2.3c-1.11-2.63-2.22-5.26-3.33-7.88c3.72,9.2,6.99,16.37,13.83,23.75
				c6.71,7.24,14.64,10.94,23.57,14.51c0-21.21,0-42.43,0-63.64c-9.04,3.35-16.47,8.01-21.52,16.41c-2.25,3.75-3.6,8.01-5.02,12.15
				c1.11-2.63,2.22-5.26,3.33-7.88c-0.23,0.66-0.54,1.27-0.94,1.84c1.72-2.23,3.44-4.45,5.16-6.68c-0.23,0.24-0.45,0.48-0.68,0.73
				c13.33-1.72,26.66-3.44,39.99-5.16c-0.33-0.15-0.66-0.29-0.99-0.44c3.95,3.95,7.89,7.89,11.84,11.84c-0.2-0.32-0.4-0.64-0.6-0.97
				c1.5,5.55,3,11.1,4.51,16.66c-0.04-0.39-0.08-0.77-0.11-1.16c-0.39,2.92-0.79,5.85-1.18,8.77c0.11-0.36,0.23-0.72,0.34-1.09
				c-1.11,2.63-2.22,5.26-3.33,7.88c3.67-6.16,7.33-11.45,9.54-18.55c3.4-10.94,2.33-22.43-2.05-32.81
				c-6.15-14.58-18.12-26.18-31.36-34.52c-8.48,20.11-16.95,40.21-25.43,60.32c0.49,0.12,0.99,0.24,1.48,0.37
				c-2.63-1.11-5.26-2.22-7.88-3.33c0.97,0.33,1.87,0.81,2.68,1.44c-2.23-1.72-4.45-3.44-6.68-5.16c0.38,0.34,0.75,0.69,1.13,1.03
				c10.7-18.39,21.4-36.77,32.11-55.16c-0.49-0.07-0.98-0.14-1.47-0.21c2.63,1.11,5.26,2.22,7.88,3.33
				c-0.44-0.22-0.89-0.44-1.33-0.66c-12.13-6.04-25.62-5.94-36.65,2.58c-10.11,7.81-15.78,22.03-11.83,34.69
				c2.31,7.4,5.91,13.38,11.01,19.18c1.83,2.08,3.9,3.91,5.64,6.06c-1.72-2.23-3.44-4.45-5.16-6.68c0.57,0.76,1.05,1.57,1.45,2.43
				c-1.11-2.63-2.22-5.26-3.33-7.88c2.04,4.83,4.42,9.95,5.26,15.15c-0.39-2.92-0.79-5.85-1.18-8.77c0.12,1.08,0.1,2.16-0.07,3.24
				c0.39-2.92,0.79-5.85,1.18-8.77c-0.16,0.96-0.45,1.89-0.86,2.77c1.11-2.63,2.22-5.26,3.33-7.88c-0.41,0.88-0.92,1.71-1.52,2.48
				c1.72-2.23,3.44-4.45,5.16-6.68c-1.02,1.17-1.99,2.08-3.22,3.03c2.23-1.72,4.45-3.44,6.68-5.16c-0.81,0.57-1.67,1.06-2.56,1.47
				c2.63-1.11,5.26-2.22,7.88-3.33c-2.08,0.85-4.11,1.41-6.32,1.81c2.92-0.39,5.85-0.79,8.77-1.18c-6.02,0.74-12.08,0.39-18.08-0.36
				c2.92,0.39,5.85,0.79,8.77,1.18c-2.85-0.43-5.63-0.9-8.37-1.81c2.63,1.11,5.26,2.22,7.88,3.33c-0.98-0.37-1.9-0.86-2.75-1.47
				c2.23,1.72,4.45,3.44,6.68,5.16c-0.72-0.53-1.34-1.16-1.85-1.89c1.72,2.23,3.44,4.45,5.16,6.68c-0.22-0.38-0.44-0.76-0.67-1.14
				c1.11,2.63,2.22,5.26,3.33,7.88c-0.38-0.79-0.59-1.62-0.62-2.5c0.39,2.92,0.79,5.85,1.18,8.77c0.04-0.43,0.09-0.86,0.13-1.29
				c-22,0-44,0-66,0c0.85,8.47,2.62,15.58,7.86,22.37c4.73,6.12,11.71,11.18,19.41,12.87c10.52,2.31,20.21,0.71,28.77-5.91
				c3.59-2.33,6.43-5.41,8.5-9.26c2.99-5.15,4.49-10.7,4.51-16.66c0.94-7.23-2.1-12.06-3.2-18.56c0.39,2.92,0.79,5.85,1.18,8.77
				c-0.09-1.11-0.02-2.22,0.2-3.32c-0.39,2.92-0.79,5.85-1.18,8.77c0.23-1.12,0.56-2.2,1.01-3.25c-1.11,2.63-2.22,5.26-3.33,7.88
				c0.98-2.14,2.12-4.12,3.39-6.1c-19-11.1-37.99-22.21-56.99-33.31c-5.74,11.61-7.62,25.33,0.25,36.73
				c7.67,11.13,19.03,17.62,32.88,15.75c12.29-1.65,24.67-10.91,27.43-23.64c1.13-5.21,2.71-10.24,4.75-15.16
				c-1.11,2.63-2.22,5.26-3.33,7.88c1.91-4.34,4.13-8.46,6.7-12.44c9.37-14.54,3.45-37.07-11.84-45.15
				C349.08,177.2,330.31,182.18,320.32,197.7L320.32,197.7z"
        />
      </g>
    </g>
  </g>
  <g id="Layer_1">
    <g>
      <g>
        <path
          d="M205.11,392.14c-28.04-9.71-57.32-19.87-79.41-40.51c-18.69-17.46-31.07-40.88-36.59-65.74
				c-5.59-25.14-3.98-51.55,4.83-75.76c8.86-24.35,24.54-45.93,43.98-62.94c20.52-17.94,45.26-30.5,71.73-36.87
				c30.08-7.24,61.82-6.68,91.89,0.26c28.02,6.47,55.34,18.29,78.18,35.92c10.83,8.36,20.71,18.16,28.7,29.29
				c8.81,12.27,15.17,26.04,19.32,40.53c8.93,31.17,8.8,65.19,2.14,96.78c-3.02,14.33-7.04,29.12-15.26,41.44
				c-3.88,5.81-8.81,10.84-14.65,14.68c-5.93,3.89-12.48,6.63-19.22,8.77c-6.77,2.15-13.7,3.73-20.62,5.27
				c-3.14,0.7-1.81,5.52,1.33,4.82c14.38-3.2,29.36-6.62,41.74-15.02c12.37-8.4,20.02-21.19,25.01-35.03
				c5.57-15.46,8.68-31.96,10.28-48.28c1.66-16.88,1.39-33.95-0.92-50.76c-2.17-15.78-6.35-31.3-13.12-45.75
				c-6.23-13.31-14.83-25.41-25.07-35.94c-20.21-20.76-46.2-35.4-73.41-44.88c-29.99-10.46-62.45-14.61-94.06-11.04
				c-29.21,3.3-57.45,13.2-81.68,29.94c-22.07,15.25-40.78,35.62-53.19,59.47c-12.34,23.71-17.98,50.41-15.7,77.07
				c2.25,26.35,11.66,52.1,27.9,73.07c8.56,11.05,18.96,20.4,30.69,27.99c13.1,8.48,27.49,14.75,42.04,20.24
				c7.22,2.73,14.52,5.26,21.81,7.79C206.83,398.02,208.14,393.19,205.11,392.14L205.11,392.14z"
        />
      </g>
    </g>
    <g>
      <g>
        <path
          d="M165,179.58c-12.3,0.7-21.69,9.42-28.79,18.75c-7.82,10.26-14.72,22.29-16.92,35.15c-2.14,12.56,0.25,25.67,8.82,35.41
				c7.5,8.52,18.4,13.37,29.12,16.4c24.04,6.81,55.87,8.84,72.69-13.49c7.33-9.73,10.11-22.54,9.34-34.55
				c-0.76-11.85-4.8-23.47-11.57-33.23c-6.92-9.98-16.44-17.76-27.64-22.47c-11.21-4.71-23.6-6.19-35.61-4.37
				c-2.88,0.44-5.73,1.09-8.52,1.94c-3.07,0.93-1.76,5.76,1.33,4.82c21.51-6.51,45.91-0.17,61.17,16.42
				c14.54,15.81,20.96,40.91,11.85,61.02c-2.36,5.21-5.71,9.83-10.1,13.51c-4.24,3.55-9.35,6.05-14.62,7.67
				c-12.53,3.85-25.91,2.57-38.55-0.05c-10.26-2.13-20.62-5.32-29.19-11.53c-3.99-2.9-7.44-6.58-9.89-10.86
				c-2.93-5.12-4.29-11.01-4.41-16.88c-0.26-12.35,4.83-23.91,11.33-34.15c5.64-8.89,12.71-18.69,22.81-22.81
				c2.34-0.96,4.83-1.54,7.35-1.69C168.2,184.39,168.22,179.39,165,179.58L165,179.58z"
        />
      </g>
    </g>
    <g>
      <g>
        <path
          d="M340.61,179.29c-12.57-0.62-20.77,11.35-26.37,20.92c-6.91,11.81-13.16,24.45-16.96,37.63
				c-3.57,12.36-4.78,25.96,0.38,38.05c4.51,10.56,13.61,18.33,23.98,22.89c11.15,4.91,23.42,6.65,35.54,6.1
				c13.24-0.6,27-3.86,38.37-10.87c5.18-3.2,9.84-7.3,13.21-12.4c3.69-5.57,5.34-12.11,6.07-18.67c0.73-6.57,0.7-13.3,0.41-19.9
				c-0.3-6.99-1.41-13.89-4.4-20.26c-5.18-11.03-14.94-19.06-24.33-26.41c-10.17-7.95-21.2-16.46-34.4-18.15
				c-3.1-0.39-6.15-0.28-9.23,0.2c-1.33,0.21-2.07,1.88-1.75,3.08c0.39,1.42,1.74,1.96,3.08,1.75c12.02-1.89,23.33,5.17,32.6,11.96
				c4.66,3.41,9.24,6.99,13.63,10.74c4.24,3.62,8.37,7.52,11.68,12.02c3.53,4.8,5.97,10.09,7.13,15.95
				c1.26,6.39,1.18,13.02,1.1,19.51c-0.08,6.08-0.44,12.22-2.29,18.06c-1.7,5.37-4.83,9.98-9,13.74
				c-8.84,7.96-21.14,11.92-32.69,13.74c-11.62,1.83-23.9,1.36-35.21-1.99c-9.57-2.84-19.04-8.01-25.02-16.23
				c-6.92-9.52-8.08-21.48-6.09-32.82c2.18-12.44,7.36-24.22,13.1-35.38c2.91-5.65,5.97-11.33,9.62-16.55
				c2.92-4.17,6.55-8.29,11.25-10.48c2.08-0.97,4.3-1.35,6.58-1.24C343.83,184.45,343.82,179.45,340.61,179.29L340.61,179.29z"
        />
      </g>
    </g>
    <g>
      <g>
        <path
          d="M382.88,210.2c-2.63-3.1-8.14-2.57-9.99,1.08c-0.95,1.86-1.03,4.05-0.07,5.93c0.87,1.7,2.62,2.83,4.43,3.32
				c3.17,0.84,7.23,0.54,9.76-1.73c1.59-1.44,1.97-3.79,0.99-5.67c-0.84-1.62-2.54-2.58-4.16-3.27c-1.32-0.57-2.65-0.93-4.1-0.62
				c-1.38,0.29-2.41,1.29-2.87,2.6c-0.76,2.17,0.71,5.27,3.32,5c0.68-0.07,1.27-0.23,1.77-0.73c0.43-0.43,0.76-1.15,0.73-1.77
				c-0.06-1.24-1.11-2.65-2.5-2.5c-0.3,0.03-0.37-0.11,0.29,0.07c0.33,0.09,0.56,0.26,0.81,0.47c-0.3-0.25,0.38,0.56,0.18,0.21
				c0.29,0.52,0.22,0.54,0.15,0.33c-0.12-0.41,0.06,0.7,0.04,0.26c0-0.04,0.02-0.16,0.01-0.21c0.11,0.38-0.12,0.63,0,0.26
				c-0.19,0.42-0.24,0.54-0.14,0.36c0.1-0.17,0.02-0.07-0.24,0.3c0.29-0.3-0.57,0.33-0.19,0.14c-0.09,0.05-0.51,0.14-0.11,0.07
				c-0.11,0.01-0.22,0.02-0.33,0.04c0.11-0.01,0.23-0.01,0.35,0c0.01,0.03-0.65-0.15-0.14-0.02c0.04,0.01,0.88,0.25,0.87,0.27
				c-0.09-0.04-0.17-0.07-0.26-0.11c0.11,0.05,0.22,0.1,0.33,0.15c0.15,0.07,0.29,0.14,0.43,0.21c0.23,0.12,0.46,0.24,0.68,0.37
				c0.11,0.07,0.22,0.13,0.33,0.21c0.33,0.22,0.02,0.18-0.07-0.08c0.02,0.05,0.47,0.49,0.53,0.52c-0.32-0.14-0.27-0.42-0.11-0.09
				c0.09,0.17,0.06,0.08-0.1-0.27c0.03,0.09,0.06,0.18,0.08,0.28c-0.2-0.19-0.02-0.57-0.04-0.26c-0.02,0.38-0.14,0.22,0.05-0.18
				c-0.02,0.05-0.04,0.16-0.06,0.23c-0.1,0.43,0.32-0.53,0.06-0.18c-0.36,0.5,0.41-0.4-0.05,0.05c-0.05,0.05-0.14,0.11-0.18,0.17
				c0.34-0.26,0.41-0.31,0.2-0.16c-0.07,0.05-0.15,0.1-0.22,0.14c-0.19,0.11-0.42,0.19-0.6,0.31c0.04-0.02,0.59-0.22,0.21-0.1
				c-0.13,0.04-0.27,0.09-0.4,0.13c-0.23,0.07-0.46,0.12-0.69,0.17c-0.09,0.02-0.18,0.03-0.28,0.05c-0.48,0.1,0.65-0.04,0.05-0.01
				c-0.47,0.03-0.94,0.05-1.42,0.04c-0.26-0.01-0.52-0.02-0.78-0.04c-0.19-0.02-0.67-0.14,0.04,0.02c-0.15-0.03-0.31-0.05-0.46-0.08
				c-0.25-0.05-0.5-0.11-0.74-0.19c-0.11-0.04-0.31-0.15-0.42-0.15c0.06,0,0.54,0.27,0.19,0.07c-0.21-0.12-0.42-0.27-0.63-0.38
				c0.53,0.26,0.24,0.2,0.06,0.02c-0.08-0.08-0.21-0.29-0.3-0.33c0.25,0.09,0.29,0.42,0.09,0.08c-0.05-0.09-0.1-0.25-0.17-0.32
				c0.3,0.29,0.14,0.45,0.08,0.13c-0.02-0.09-0.04-0.28-0.09-0.35c0.19,0.27,0.04,0.55,0.03,0.17c0-0.12-0.01-0.24,0-0.36
				c0-0.08,0.04-0.57,0-0.1c-0.04,0.47,0.04-0.13,0.07-0.23c0.01-0.03,0.1-0.22,0.09-0.27c-0.17,0.37-0.19,0.44-0.08,0.2
				c0.04-0.09,0.09-0.17,0.14-0.25c0.04-0.06,0.15-0.18,0.16-0.24c-0.25,0.31-0.29,0.37-0.12,0.17c0.05-0.05,0.1-0.1,0.15-0.15
				c0.27-0.3,0.16,0.08-0.11,0.07c0.08,0,0.29-0.17,0.37-0.22c0.43-0.26-0.56,0.15-0.07,0.04c0.07-0.02,0.36-0.06,0.42-0.1
				c-0.13,0.02-0.25,0.03-0.38,0.05c0.1-0.01,0.19-0.02,0.29-0.02c0.14-0.01,0.29,0.01,0.43,0.01c0.51,0.01-0.49-0.11-0.16-0.02
				c0.16,0.04,0.33,0.09,0.49,0.13c0.39,0.1-0.16-0.04-0.2-0.09c0.08,0.1,0.38,0.21,0.5,0.28c0.27,0.16-0.1,0.09-0.16-0.13
				c0.03,0.11,0.32,0.32,0.4,0.41c0.85,1,2.67,0.94,3.54,0C383.86,212.67,383.79,211.27,382.88,210.2L382.88,210.2z"
        />
      </g>
    </g>
    <g>
      <g>
        <path
          d="M143.05,228.07c-2.72-0.23-5.46,1.33-6.82,3.65c-0.52,0.88-0.45,2.33,0.39,3.03c1.05,0.87,2.14,1.33,3.5,1.44
				c1.08,0.09,2.35-0.23,3.25-0.84c2.01-1.38,3.03-3.87,2.35-6.25c-0.53-1.84-2.81-2.4-4.18-1.1c-2.39,2.26-3.76,5.45-3.87,8.72
				c-0.04,1.18,0.82,2.02,1.84,2.41c1.59,0.62,3.3,1.19,5.03,1.03c0.97-0.09,1.97-0.3,2.8-0.84c0.75-0.49,1.35-1.1,1.84-1.86
				c0.95-1.47,1.12-3.38,0.32-4.94c-0.83-1.65-2.61-2.29-4.32-2.52c-1.9-0.26-3.81-0.52-5.71-0.78c-0.7-0.09-1.29-0.12-1.93,0.25
				c-0.52,0.3-1.01,0.9-1.15,1.49c-0.15,0.64-0.11,1.36,0.25,1.93c0.33,0.5,0.87,1.06,1.49,1.15c1.76,0.24,3.53,0.48,5.29,0.72
				c0.37,0.05,0.74,0.09,1.1,0.16c0.17,0.03,0.34,0.06,0.51,0.11c0.08,0.02,0.17,0.04,0.25,0.07c0.24,0.09,0.16,0.05-0.24-0.12
				c0.08,0.03,0.15,0.07,0.22,0.11c0.21,0.14,0.15,0.08-0.2-0.18c0.06,0.05,0.11,0.1,0.17,0.16c0.16,0.19,0.1,0.09-0.21-0.28
				c0.04,0.05,0.07,0.11,0.1,0.16c0.11,0.22,0.06,0.11-0.14-0.34c0.02,0.12,0.07,0.24,0.09,0.36c-0.03-0.22-0.06-0.44-0.09-0.66
				c0.03,0.23,0.02,0.44-0.01,0.67c0.03-0.22,0.06-0.44,0.09-0.66c-0.02,0.13-0.05,0.26-0.09,0.39c-0.03,0.11-0.16,0.42,0.02-0.01
				c0.18-0.42,0.07-0.15,0.02-0.07c-0.07,0.12-0.14,0.24-0.21,0.36c-0.05,0.08-0.23,0.31,0.04-0.04c0.28-0.37,0.06-0.08-0.01-0.02
				c-0.03,0.03-0.31,0.27-0.31,0.28c-0.01-0.04,0.54-0.36,0.26-0.21c-0.06,0.03-0.12,0.07-0.18,0.11c-0.06,0.03-0.13,0.06-0.18,0.09
				c0.52-0.33,0.49-0.19,0.24-0.12c-0.22,0.07-0.44,0.11-0.67,0.15c0.22-0.03,0.44-0.06,0.66-0.09c-0.46,0.05-0.91,0.05-1.36,0
				c0.22,0.03,0.44,0.06,0.66,0.09c-1.09-0.15-2.13-0.53-3.15-0.92c0.61,0.8,1.22,1.61,1.84,2.41c0.01-0.32,0.04-0.64,0.08-0.96
				c-0.03,0.22-0.06,0.44-0.09,0.66c0.07-0.55,0.19-1.08,0.35-1.61c0.08-0.26,0.17-0.52,0.27-0.78c0.18-0.48-0.26,0.55-0.04,0.09
				c0.06-0.12,0.12-0.25,0.18-0.37c0.25-0.49,0.55-0.95,0.87-1.4c0.26-0.37-0.37,0.44-0.05,0.07c0.08-0.09,0.15-0.17,0.22-0.26
				c0.2-0.22,0.41-0.43,0.62-0.64c-1.39-0.37-2.79-0.74-4.18-1.1c0.04,0.15,0.08,0.31,0.1,0.47c-0.03-0.22-0.06-0.44-0.09-0.66
				c0.03,0.28,0.03,0.55-0.01,0.83c0.03-0.22,0.06-0.44,0.09-0.66c-0.03,0.16-0.06,0.31-0.1,0.47c-0.02,0.08-0.05,0.15-0.08,0.23
				c0.05-0.13,0.11-0.25,0.16-0.38c0.02,0.1-0.18,0.33-0.23,0.42c-0.22,0.38,0.43-0.48,0.06-0.09c-0.04,0.04-0.08,0.09-0.13,0.13
				c-0.19,0.17-0.11,0.11,0.23-0.16c-0.12,0.06-0.25,0.15-0.37,0.22c-0.18,0.09-0.07,0.04,0.32-0.13c-0.08,0.03-0.15,0.05-0.23,0.08
				c-0.16,0.05-0.32,0.07-0.48,0.1c0.22-0.03,0.44-0.06,0.66-0.09c-0.29,0.03-0.57,0.03-0.86-0.01c0.22,0.03,0.44,0.06,0.66,0.09
				c-0.12-0.02-0.24-0.04-0.36-0.07c-0.05-0.01-0.3-0.12-0.35-0.11c0.12,0.05,0.25,0.1,0.37,0.15c-0.07-0.04-0.15-0.07-0.22-0.12
				c-0.17-0.1-0.48-0.38,0.11,0.1c0.13,1.01,0.26,2.02,0.39,3.03c0.02-0.04,0.28-0.41,0.27-0.42c0.02,0.02-0.4,0.48-0.16,0.21
				c0.06-0.06,0.11-0.13,0.17-0.19c0.12-0.12,0.24-0.23,0.37-0.34c0.25-0.23-0.18,0.12-0.21,0.16c0.05-0.07,0.19-0.13,0.26-0.18
				c0.14-0.09,0.29-0.17,0.44-0.25c0.47-0.24-0.51,0.18-0.02,0.01c0.34-0.12,0.68-0.2,1.04-0.25c-0.22,0.03-0.44,0.06-0.66,0.09
				c0.34-0.04,0.67-0.04,1-0.01c1.31,0.11,2.56-1.23,2.5-2.5C145.48,229.12,144.45,228.19,143.05,228.07L143.05,228.07z"
        />
      </g>
    </g>
    <g>
      <g>
        <path
          d="M227.2,316.49c-2.02,9.78-3.23,19.95-1.05,29.81c1.84,8.34,6.23,16.26,13.2,21.35c6.57,4.79,15.88,6.69,23.58,3.66
				c4.16-1.64,7.64-4.45,10.64-7.72c3.07-3.35,5.8-7.04,8.18-10.91c5.26-8.56,8.77-18.22,10.2-28.17c0.19-1.33-0.33-2.69-1.75-3.08
				c-1.17-0.32-2.88,0.4-3.08,1.75c-1.16,8.08-3.66,15.93-7.5,23.13c-1.91,3.59-4.11,7.05-6.63,10.25c-2.4,3.04-5.04,6.1-8.29,8.25
				c-6.13,4.04-13.95,3.68-20.25,0.18c-6.53-3.62-10.75-10.3-12.8-17.33c-2.84-9.74-1.66-20.07,0.37-29.84
				c0.27-1.32-0.39-2.7-1.75-3.08C229.04,314.41,227.47,315.16,227.2,316.49L227.2,316.49z"
        />
      </g>
    </g>
    <g>
      <g>
        <path
          d="M193.04,391.72c-11.81,17.16-22.05,35.39-30.57,54.4c-8.52,19.01-15.38,38.75-20.39,58.97
				c-2.82,11.38-5.05,22.91-6.69,34.52c-0.19,1.34,0.33,2.69,1.75,3.08c1.17,0.32,2.89-0.4,3.08-1.75
				c2.9-20.48,7.64-40.69,14.16-60.32c6.5-19.57,14.76-38.53,24.66-56.62c5.6-10.22,11.72-20.15,18.32-29.75
				c0.77-1.11,0.21-2.77-0.9-3.42C195.22,390.09,193.81,390.6,193.04,391.72L193.04,391.72z"
        />
      </g>
    </g>
    <g>
      <g>
        <path
          d="M359.83,387.28c3.65,26.45,5.86,53.08,7.31,79.73c1.46,26.74,2.15,53.51,2.74,80.28c0.16,7.04,0.48,14.09,0.29,21.13
				c-0.18,6.59-0.95,13.33-3.66,19.41c-0.55,1.23-0.36,2.69,0.9,3.42c1.07,0.62,2.87,0.34,3.42-0.9c5.19-11.61,4.47-24.47,4.2-36.89
				c-0.3-13.59-0.61-27.18-1.01-40.77c-0.81-27-2.01-54-4.29-80.92c-1.3-15.32-2.96-30.6-5.06-45.82c-0.18-1.34-1.9-2.07-3.08-1.75
				C360.13,384.6,359.64,385.94,359.83,387.28L359.83,387.28z"
        />
      </g>
    </g>
    <path class="st2" d="M674.76,464.1" />
  </g>
</svg>
